<?xml version="1.0" encoding="UTF-8"?>
<svg id="Livello_1" xmlns="http://www.w3.org/2000/svg" version="1.1" viewBox="0 0 791 791">
  <!-- Generator: Adobe Illustrator 29.3.1, SVG Export Plug-In . SVG Version: 2.1.0 Build 151)  -->
  <defs>
    <style>
      .st0 {
        fill-rule: evenodd;
      }

      .st0, .st1, .st2 {
        fill: #3161dd;
      }

      .st2 {
        opacity: 0;
      }
    </style>
  </defs>
  <rect class="st2" width="791" height="791"/>
  <path class="st1" d="M244.63,467c-15.72,0-27.49-6.1-35.3-18.31l9.81-6.15c5.57,8.79,14.01,13.18,25.34,13.18,7.91,0,14.04-1.81,18.38-5.42,4.34-3.61,6.52-8.94,6.52-15.97v-6.3c-6.35,7.42-15.09,11.13-26.22,11.13-10.35,0-19.14-3.61-26.37-10.84-7.23-7.23-10.84-16.06-10.84-26.51s3.64-19.29,10.91-26.51c7.27-7.23,16.04-10.84,26.29-10.84,10.94,0,19.68,3.66,26.22,10.99v-9.81h12.74v67.82c0,9.67-3.35,17.67-10.03,24.02-6.69,6.35-15.85,9.52-27.47,9.52ZM243.89,376.33c-7.13,0-13.16,2.47-18.09,7.4s-7.4,11.01-7.4,18.24,2.46,13.31,7.4,18.24c4.93,4.93,10.96,7.4,18.09,7.4s13.6-2.44,18.53-7.32c4.93-4.88,7.4-10.99,7.4-18.31s-2.49-13.43-7.47-18.31c-4.98-4.88-11.13-7.32-18.46-7.32Z"/>
  <path class="st1" d="M370.3,422.76c-7.72,12.3-19.39,18.46-35.01,18.46-11.33,0-20.56-3.66-27.69-10.99-7.13-7.32-10.69-16.5-10.69-27.54s3.61-19.8,10.84-27.17c7.23-7.37,16.41-11.06,27.54-11.06s20.31,3.52,27.25,10.55c6.93,7.03,10.4,15.72,10.4,26.07,0,2.44-.15,4.39-.44,5.86h-62.69c.78,6.84,3.47,12.33,8.06,16.48,4.59,4.15,10.5,6.23,17.72,6.23,10.94,0,19.19-4.3,24.76-12.89l9.96,6.01ZM335.29,375.59c-6.64,0-12.21,1.88-16.7,5.64-4.49,3.76-7.32,8.86-8.5,15.31h49.51c-.98-6.54-3.69-11.67-8.13-15.38-4.44-3.71-9.84-5.57-16.19-5.57Z"/>
  <path class="st1" d="M400.32,365.63v9.37c2.15-3.12,5.25-5.66,9.3-7.62,4.05-1.95,8.72-2.93,13.99-2.93,8.69,0,15.65,2.71,20.87,8.13,5.22,5.42,7.84,12.67,7.84,21.75v45.41h-12.74v-43.65c0-6.05-1.64-10.86-4.91-14.43-3.27-3.56-7.74-5.35-13.4-5.35-6.35,0-11.43,1.95-15.23,5.86-3.81,3.91-5.71,9.18-5.71,15.82v41.75h-12.74v-74.12h12.74Z"/>
  <path class="st1" d="M530.01,439.75v-9.81c-6.64,7.32-15.48,10.99-26.51,10.99-10.35,0-19.21-3.69-26.59-11.06-7.37-7.37-11.06-16.38-11.06-27.03s3.69-19.68,11.06-27.1c7.37-7.42,16.23-11.13,26.59-11.13s19.58,3.57,26.51,10.69v-35.89h12.89v100.34h-12.89ZM504.22,429.06c7.42,0,13.65-2.51,18.68-7.54,5.03-5.03,7.54-11.25,7.54-18.68s-2.52-13.52-7.54-18.6c-5.03-5.08-11.26-7.62-18.68-7.62s-13.45,2.54-18.38,7.62c-4.93,5.08-7.4,11.28-7.4,18.6s2.47,13.53,7.4,18.6c4.93,5.08,11.06,7.62,18.38,7.62Z"/>
  <path class="st1" d="M611.44,439.75v-9.37c-2.15,3.13-5.25,5.66-9.3,7.62-4.05,1.95-8.72,2.93-13.99,2.93-8.69,0-15.65-2.71-20.87-8.13-5.23-5.42-7.84-12.67-7.84-21.75v-45.41h12.74v43.65c0,6.06,1.63,10.86,4.91,14.43,3.27,3.57,7.74,5.35,13.4,5.35,6.35,0,11.43-1.95,15.23-5.86,3.81-3.91,5.71-9.18,5.71-15.82v-41.75h12.74v74.12h-12.74Z"/>
  <path class="st1" d="M680.43,401.52l26.07,38.23h-15.53l-18.9-28.42-19.04,28.42h-15.38l25.93-37.94-24.46-36.18h15.53l17.43,26.37,36.3-52.8h14.27l-42.22,62.32Z"/>
  <polygon class="st1" points="686.86 351.15 673.12 370.65 659.38 351.15 673.12 331.66 686.86 351.15"/>
  <g>
    <path class="st0" d="M190.19,319.07c3.3-2.67,6.57-5.31,9.8-7.93-5.98-1.27-12.92-1.49-20.53-.65-1.53,2.59-3.08,5.23-4.64,7.91,5.7-.55,10.89-.31,15.37.67Z"/>
    <path class="st0" d="M204.22,327.91c4.48-2.02,8.96-4.03,13.38-6.03-2.7-4.15-6.94-7.26-12.44-9.27-3.23,2.66-6.5,5.34-9.81,8.07,3.94,1.66,6.96,4.1,8.87,7.23Z"/>
    <path class="st0" d="M219.66,325.99c-4.52,2.05-9.07,4.13-13.65,6.2,1,3.85.7,8.35-.91,13.26,4.73-.58,9.49-1.16,14.29-1.76,2.01-6.69,2.05-12.7.27-17.71Z"/>
    <path class="st0" d="M189.76,368.57c3.47,1.56,6.99,3.14,10.58,4.75,7.53-7.82,13.14-15.72,16.6-23.23-4.9.6-9.74,1.17-14.58,1.75-2.87,5.47-7.12,11.15-12.6,16.73Z"/>
    <path class="st0" d="M192.89,380.48c-3.59-1.7-7.11-3.37-10.56-5.03-2.59,1.99-5.14,3.86-7.67,5.62l-16.22-41.91h-16.71l-24.95,64.5c-38.58-.12-41.06-45,32.22-79.56v7.72l24.21-17.87-27.3-2.2,3.65,6.32c-30,10.84-88.94,52.62-74.92,84.89,2.58,5.93,7.78,10.3,13.87,12.47,7.05,2.51,14.69,3.36,22.58,2.93l-8.51,21.99h16.79l9.32-24.83c12.53-3.25,25.11-8.9,36.58-15.55l15.23,40.38h17.08l-18.92-48.9c5.18-3.61,9.97-7.32,14.21-10.97ZM134.09,401.18l15.79-42.06,11.47,30.4c-9.87,5.63-19.03,9.43-27.26,11.65Z"/>
  </g>
</svg>